<svg width="24" height="24" viewBox="0 0 24 24" fill="none" xmlns="http://www.w3.org/2000/svg">
<path d="M17.5438 14.6201C17.5147 14.4202 17.4516 14.2217 17.4022 14.0131C17.2675 13.6097 17.0955 13.1887 16.8454 12.804C16.6092 12.4068 16.3018 12.0521 15.9756 11.7168C15.6423 11.3918 15.2806 11.0957 14.9059 10.8408C14.5311 10.5862 14.1466 10.3608 13.7652 10.1714C13.3846 9.97489 13.0075 9.81961 12.6463 9.67489C12.2844 9.53905 11.9381 9.41809 11.6155 9.32305C10.9699 9.12793 10.4206 9.00625 10.0255 8.93257C9.85177 8.89969 9.70993 8.87665 9.60001 8.86057V6.24001L5.51953 10.56L9.59953 14.88V12.2544C9.65761 12.2482 9.72529 12.2414 9.80209 12.235C10.111 12.2078 10.567 12.1843 11.1135 12.1978C11.3878 12.2021 11.6818 12.2227 11.9938 12.2501C12.3019 12.2851 12.6307 12.3242 12.9583 12.3941C13.29 12.4574 13.6227 12.5472 13.9527 12.6581C14.2827 12.7694 14.6014 12.9115 14.9081 13.0776C15.2045 13.2523 15.5002 13.4434 15.7443 13.6802C16.0039 13.9066 16.2099 14.1761 16.4004 14.4545C16.4779 14.6016 16.5732 14.7422 16.6385 14.8937C16.698 15.0468 16.7789 15.1932 16.8211 15.3485C16.8643 15.503 16.9215 15.653 16.9519 15.8045C16.9815 15.9578 17.01 16.1059 17.0374 16.2482C17.0556 16.393 17.065 16.5334 17.0784 16.6678C17.0847 16.7352 17.0909 16.801 17.0967 16.8648C17.0969 16.9291 17.0971 16.9913 17.0974 17.0515C17.0943 17.2934 17.107 17.5097 17.0849 17.6842C17.0561 18.0377 17.0395 18.24 17.0395 18.24C17.0395 18.24 17.1091 18.048 17.2311 17.7125C17.2999 17.545 17.3453 17.3321 17.4149 17.0878C17.4312 17.0263 17.4483 16.9627 17.4658 16.8977C17.4775 16.8312 17.4898 16.7626 17.5023 16.6927C17.5263 16.5516 17.556 16.4023 17.5781 16.2446C17.5903 16.0848 17.6031 15.9185 17.6165 15.7459C17.6278 15.5719 17.6122 15.391 17.61 15.2018C17.6088 15.0125 17.5666 14.8212 17.5438 14.6201Z" fill="#444444"/>
<path d="M12 0C5.37264 0 0 5.37264 0 12C0 18.6274 5.37264 24 12 24C18.6274 24 24 18.6274 24 12C24 5.37264 18.6274 0 12 0ZM12 22.08C6.44184 22.08 1.92 17.5582 1.92 12C1.92 6.44184 6.44184 1.92 12 1.92C17.5582 1.92 22.08 6.44184 22.08 12C22.08 17.5582 17.5582 22.08 12 22.08Z" fill="#444444"/>
</svg>
