<svg width="58" height="64" viewBox="0 0 58 64" fill="none" xmlns="http://www.w3.org/2000/svg">
<path d="M50.7573 36.242V19.952L33.1713 2H6.94531V36.242" stroke="#444444" stroke-width="3" stroke-miterlimit="10"/>
<path d="M6.94531 55.388V62H50.7573V55.388" stroke="#444444" stroke-width="3" stroke-miterlimit="10"/>
<path d="M33.168 2V19.586H50.754" stroke="#444444" stroke-width="3" stroke-miterlimit="10"/>
<path d="M55.7 36.242H2V55.388H55.7V36.242Z" stroke="#444444" stroke-width="3" stroke-miterlimit="10"/>
<path d="M17.2004 46.339L17.2007 46.3273L17.2004 46.3156C17.1874 45.7896 17.283 45.2666 17.4812 44.7792C17.6795 44.2918 17.9761 43.8506 18.3526 43.483C18.7291 43.1155 19.1774 42.8296 19.6694 42.6431C20.1614 42.4567 20.6866 42.3737 21.2121 42.3994L21.2314 42.4003L21.2507 42.3998C21.8857 42.3818 22.5129 42.5423 23.0611 42.8631C23.4619 43.0976 23.8087 43.411 24.0817 43.7823L23.415 44.1195C23.2093 43.8549 22.9573 43.6281 22.6698 43.4508C22.2413 43.1865 21.7497 43.0419 21.2463 43.0321L21.2298 43.0318L21.2134 43.0325C20.3666 43.0718 19.5674 43.4358 18.9821 44.049C18.3967 44.6621 18.07 45.4773 18.07 46.325C18.07 47.1727 18.3967 47.9879 18.9821 48.601C19.5674 49.2142 20.3666 49.5782 21.2134 49.6175L21.2272 49.6181L21.2411 49.618C21.7439 49.6134 22.2361 49.4731 22.6658 49.212C22.9562 49.0355 23.2107 48.8082 23.4179 48.5423L24.0752 48.8621C23.8022 49.2298 23.4571 49.5405 23.059 49.7741C22.5107 50.0959 21.8836 50.2586 21.248 50.2441L21.23 50.2437L21.2122 50.2446C20.6875 50.2702 20.1633 50.1876 19.672 50.0017C19.1807 49.8159 18.733 49.531 18.3566 49.1646C17.9803 48.7982 17.6834 48.3582 17.4845 47.8721C17.2856 47.386 17.1889 46.8641 17.2004 46.339Z" fill="#444444" stroke="#444444"/>
<path d="M28.8217 42.436H28.8126C26.982 42.436 26.0846 43.4608 26.0846 44.528C26.0846 45.1772 26.3222 45.5719 26.6675 45.855C27.0404 46.1607 27.5652 46.3567 28.1653 46.5179C28.3859 46.5771 28.6038 46.6287 28.8225 46.6803C28.899 46.6984 28.9756 46.7165 29.0524 46.735C29.3402 46.8042 29.6316 46.8785 29.8892 46.9707C30.1416 47.0611 30.4061 47.1836 30.6125 47.3715C30.8365 47.5753 30.9866 47.8529 30.9866 48.2C30.9866 48.6234 30.7709 49.0043 30.4103 49.2627C30.0565 49.5162 29.5749 49.648 29.0048 49.648L28.8217 42.436ZM28.8217 42.436L28.8308 42.4357M28.8217 42.436L28.8308 42.4357M28.8308 42.4357C29.7644 42.4017 30.6782 42.6788 31.4318 43.2162L31.0132 43.7492C30.3173 43.2724 29.4891 43.0157 28.6372 43.02C28.183 43.0202 27.7661 43.1189 27.4494 43.3523C27.1151 43.5987 26.9386 43.9632 26.9386 44.372C26.9386 44.7197 27.1059 44.9857 27.3286 45.1711C27.5335 45.3417 27.7942 45.4535 28.0414 45.5372C28.2948 45.6229 28.5826 45.6945 28.8675 45.7627C28.9176 45.7746 28.9677 45.7866 29.0178 45.7985C29.2603 45.8561 29.5035 45.9139 29.7477 45.9813C30.3434 46.1456 30.8678 46.3477 31.2405 46.6564C31.5874 46.9436 31.8226 47.3381 31.8226 47.972C31.8226 48.6272 31.5937 49.1636 31.1536 49.5435C30.7057 49.9302 29.9832 50.202 28.9146 50.202H28.9004M28.8308 42.4357L28.9004 50.202M28.9004 50.202L28.8863 50.2028M28.9004 50.202L28.8863 50.2028M28.8863 50.2028C28.2948 50.2364 27.7027 50.1482 27.1466 49.9437C26.7262 49.7891 26.3332 49.5705 25.9811 49.2964M28.8863 50.2028L25.9811 49.2964M25.9811 49.2964L26.3792 48.7415C26.6719 48.9712 26.9942 49.162 27.3381 49.3084C27.865 49.5327 28.4319 49.6482 29.0046 49.648L25.9811 49.2964Z" fill="#444444" stroke="#444444"/>
<path d="M37.5354 48.7767L39.7627 42.562H40.7521L37.8556 50.076H37.0697L37.5354 48.7767ZM36.5944 48.7778L37.0633 50.076H36.2734L33.3663 42.562H34.3497L36.5944 48.7778Z" fill="#444444" stroke="#444444"/>
</svg>
