<svg width="86" height="86" viewBox="0 0 86 86" fill="none" xmlns="http://www.w3.org/2000/svg">
<path d="M77.0417 86H41.2083C36.2705 86 32.25 81.9795 32.25 77.0417V62.7083C32.25 61.7193 33.0527 60.9167 34.0417 60.9167C35.0307 60.9167 35.8333 61.7193 35.8333 62.7083V77.0417C35.8333 80.0051 38.2449 82.4167 41.2083 82.4167H77.0417C80.0051 82.4167 82.4167 80.0051 82.4167 77.0417V41.2083C82.4167 38.2449 80.0051 35.8333 77.0417 35.8333H59.125C58.136 35.8333 57.3333 35.0307 57.3333 34.0417C57.3333 33.0527 58.136 32.25 59.125 32.25H77.0417C81.9795 32.25 86 36.2705 86 41.2083V77.0417C86 81.9795 81.9795 86 77.0417 86Z" fill="#DADADA"/>
<path d="M26.8753 53.75H25.0837C24.0947 53.75 23.292 52.9474 23.292 51.9584C23.292 50.9694 24.0947 50.1667 25.0837 50.1667H26.8753C27.8643 50.1667 28.667 50.9694 28.667 51.9584C28.667 52.9474 27.8643 53.75 26.8753 53.75Z" fill="#DADADA"/>
<path d="M17.8414 53.75H14.2187C13.2297 53.75 12.427 52.9473 12.427 51.9583C12.427 50.9693 13.2297 50.1667 14.2187 50.1667H17.8414C18.8304 50.1667 19.6331 50.9693 19.6331 51.9583C19.6331 52.9473 18.8304 53.75 17.8414 53.75ZM7.00183 53.4777C6.84058 53.4777 6.67575 53.4562 6.51092 53.4096C5.05967 52.9975 3.72308 52.2163 2.64808 51.1449C1.94575 50.4497 1.94217 49.3138 2.64092 48.6115C3.33967 47.9128 4.47558 47.9056 5.17433 48.6043C5.81933 49.2458 6.622 49.7152 7.48917 49.9624C8.44233 50.2312 8.99417 51.2237 8.72183 52.1769C8.49967 52.9652 7.77942 53.4777 7.00183 53.4777ZM1.79167 44.9959C0.802667 44.9959 0 44.1932 0 43.2043V39.5815C0 38.5925 0.802667 37.7898 1.79167 37.7898C2.78067 37.7898 3.58333 38.5925 3.58333 39.5815V43.2043C3.58333 44.1932 2.78067 44.9959 1.79167 44.9959ZM1.79167 34.1277C0.802667 34.1277 0 33.325 0 32.336V28.7132C0 27.7242 0.802667 26.9216 1.79167 26.9216C2.78067 26.9216 3.58333 27.7242 3.58333 28.7132V32.336C3.58333 33.325 2.78067 34.1277 1.79167 34.1277ZM1.79167 23.263C0.802667 23.263 0 22.4603 0 21.4713V17.8486C0 16.8596 0.802667 16.0569 1.79167 16.0569C2.78067 16.0569 3.58333 16.8596 3.58333 17.8486V21.4713C3.58333 22.4603 2.78067 23.263 1.79167 23.263ZM51.9583 19.5686C50.9693 19.5686 50.1667 18.7659 50.1667 17.7769V14.1542C50.1667 13.1652 50.9693 12.3625 51.9583 12.3625C52.9473 12.3625 53.75 13.1616 53.75 14.1542V17.7769C53.75 18.7659 52.9473 19.5686 51.9583 19.5686ZM1.79167 12.3948C0.802667 12.3948 0 11.5921 0 10.6031V8.95833C0 8.13417 0.114667 7.31358 0.336833 6.52167C0.605583 5.56492 1.60175 5.00233 2.54775 5.28542C3.50092 5.55417 4.05275 6.54317 3.784 7.49633C3.65142 7.96933 3.58333 8.46025 3.58333 8.95833V10.6031C3.58333 11.5921 2.78067 12.3948 1.79167 12.3948ZM51.6681 8.729C50.8905 8.729 50.1774 8.22017 49.9481 7.439C49.6973 6.57542 49.2171 5.77992 48.5721 5.13492C47.8698 4.43975 47.8626 3.30383 48.5577 2.6015C49.2529 1.89558 50.3888 1.892 51.0912 2.58717C52.1698 3.655 52.9652 4.98442 53.3881 6.43208C53.6676 7.38167 53.1193 8.37425 52.1698 8.65375C52.0013 8.7075 51.8329 8.729 51.6681 8.729ZM6.9445 3.87C6.1705 3.87 5.45383 3.36475 5.2245 2.58358C4.94858 1.634 5.49325 0.637833 6.44283 0.358333C7.25625 0.121833 8.10192 0 8.95833 0H10.5386C11.5276 0 12.3302 0.802667 12.3302 1.79167C12.3302 2.78067 11.5312 3.58333 10.5386 3.58333H8.95833C8.44233 3.58333 7.93708 3.655 7.44975 3.79833C7.28133 3.8485 7.11292 3.87 6.9445 3.87ZM43.1397 3.58333H39.517C38.528 3.58333 37.7253 2.78067 37.7253 1.79167C37.7253 0.802667 38.528 0 39.517 0H43.1397C44.1287 0 44.9314 0.802667 44.9314 1.79167C44.9314 2.78067 44.1287 3.58333 43.1397 3.58333ZM32.2715 3.58333H28.6523C27.6633 3.58333 26.8607 2.78067 26.8607 1.79167C26.8607 0.802667 27.6597 0 28.6523 0H32.2751C33.2641 0 34.0667 0.802667 34.0667 1.79167C34.0667 2.78067 33.2641 3.58333 32.2715 3.58333ZM21.4068 3.58333H17.7841C16.7951 3.58333 15.9924 2.78067 15.9924 1.79167C15.9924 0.802667 16.7951 0 17.7841 0H21.4068C22.3958 0 23.1985 0.802667 23.1985 1.79167C23.1985 2.78067 22.3958 3.58333 21.4068 3.58333Z" fill="#DADADA"/>
<path d="M51.9587 28.6667C50.9697 28.6667 50.167 27.864 50.167 26.875V25.0833C50.167 24.0943 50.9697 23.2917 51.9587 23.2917C52.9477 23.2917 53.7503 24.0943 53.7503 25.0833V26.875C53.7503 27.864 52.9477 28.6667 51.9587 28.6667Z" fill="#DADADA"/>
<path d="M44.9714 64.5H37.6256C32.6877 64.5 28.6672 60.4795 28.6672 55.5417V49.1168L27.0619 47.5114C26.0048 46.4579 25.4243 45.0497 25.4243 43.5554C25.4243 42.0612 26.0048 40.6565 27.0619 39.5994C27.9362 38.7251 29.0507 38.1768 30.2582 38.012C30.1507 36.4533 30.6918 34.8587 31.8815 33.669C33.1249 32.4256 34.9094 31.8451 36.6186 32.0852C36.8229 31.0245 37.3317 30.0104 38.1523 29.1898C39.6573 27.6848 41.9937 27.1796 43.9466 27.8604C44.2081 27.0363 44.6668 26.2587 45.319 25.6065C47.4977 23.4278 51.0487 23.4278 53.2274 25.6065L58.7816 31.1607C62.4688 34.8515 64.5006 39.7571 64.5006 44.9708C64.5006 55.7388 55.7393 64.5 44.9714 64.5ZM32.2506 52.7001V55.5417C32.2506 58.5051 34.6622 60.9167 37.6256 60.9167H44.9714C53.7649 60.9167 60.9172 53.7643 60.9172 44.9708C60.9172 40.7138 59.2581 36.7077 56.2481 33.6977L50.694 28.1435C49.9092 27.3588 48.6371 27.3588 47.8524 28.1435C47.4726 28.5198 47.2612 29.025 47.2612 29.5625C47.2612 30.1 47.469 30.6053 47.8488 30.9815C48.2 31.3327 48.3756 31.7913 48.3756 32.25C48.3756 32.7087 48.2 33.1673 47.8524 33.5185C47.1537 34.2173 46.0177 34.2173 45.319 33.5185L43.5273 31.7268C42.7677 30.9672 41.4454 30.9672 40.6857 31.7268C39.901 32.5116 39.901 33.7837 40.6857 34.5684L42.4774 36.3601C42.825 36.7077 43.0006 37.1663 43.0006 37.625C43.0006 38.0837 42.825 38.5423 42.4774 38.8935C41.7787 39.5923 40.6427 39.5923 39.944 38.8935L37.2565 36.206C36.4968 35.4463 35.1746 35.4463 34.4149 36.206C33.6302 36.9908 33.6302 38.2628 34.4149 39.0476L38.8941 43.5268C39.2417 43.8743 39.4172 44.333 39.4172 44.7917C39.4172 45.2503 39.2417 45.709 38.8941 46.0602C38.1953 46.7589 37.0594 46.7589 36.3607 46.0602L32.4369 42.1364C31.6772 41.3768 30.355 41.3768 29.5953 42.1364C29.2155 42.5163 29.0077 43.0215 29.0077 43.5554C29.0077 44.0893 29.2155 44.5982 29.5953 44.9744L38.8941 54.2732C39.2417 54.6243 39.4172 55.083 39.4172 55.5417C39.4172 56.0003 39.2417 56.459 38.8941 56.8102C38.1953 57.5089 37.0594 57.5089 36.3607 56.8102L32.2506 52.7001Z" fill="#DADADA"/>
</svg>
