<svg width="48" height="60" viewBox="0 0 48 60" fill="none" xmlns="http://www.w3.org/2000/svg">
<path d="M47 25H46V13C46 13 46 13 46 12.94C45.9958 12.8481 45.979 12.7573 45.95 12.67V12.58C45.903 12.4766 45.8388 12.3819 45.76 12.3L33.76 0.3C33.6781 0.221221 33.5834 0.156968 33.48 0.11H33.38C33.2804 0.0554216 33.1721 0.0182226 33.06 0H3C2.73478 0 2.48043 0.105357 2.29289 0.292893C2.10536 0.48043 2 0.734784 2 1V25H1C0.734784 25 0.48043 25.1054 0.292893 25.2929C0.105357 25.4804 0 25.7348 0 26V46C0 46.2652 0.105357 46.5196 0.292893 46.7071C0.48043 46.8946 0.734784 47 1 47H2V59C2 59.2652 2.10536 59.5196 2.29289 59.7071C2.48043 59.8946 2.73478 60 3 60H45C45.2652 60 45.5196 59.8946 45.7071 59.7071C45.8946 59.5196 46 59.2652 46 59V47H47C47.2652 47 47.5196 46.8946 47.7071 46.7071C47.8946 46.5196 48 46.2652 48 46V26C48 25.7348 47.8946 25.4804 47.7071 25.2929C47.5196 25.1054 47.2652 25 47 25ZM34 3.41L42.59 12H34V3.41ZM4 2H32V13C32 13.2652 32.1054 13.5196 32.2929 13.7071C32.4804 13.8946 32.7348 14 33 14H44V25H4V2ZM44 58H4V47H44V58ZM46 45H2V27H46V45Z" fill="#DADADA"/>
<path d="M11.6695 39.84C11.6732 39.9899 11.6448 40.1388 11.5861 40.2768C11.5275 40.4148 11.44 40.5386 11.3295 40.64C11.1048 40.8541 10.8096 40.9787 10.4995 40.99C10.3563 41.0003 10.2126 41.0003 10.0695 40.99C9.87136 40.9881 9.67387 40.968 9.47945 40.93L9.18945 42.81C9.59505 42.929 10.0169 42.983 10.4395 42.97C10.8642 42.973 11.285 42.8884 11.6755 42.7215C12.0661 42.5546 12.4181 42.309 12.7095 42C13.0131 41.7108 13.2528 41.3611 13.413 40.9736C13.5731 40.586 13.6503 40.1692 13.6395 39.75V29.49H11.6395L11.6695 39.84Z" fill="#DADADA"/>
<path d="M21.3596 37.59C21.0453 37.0497 20.6584 36.5551 20.2096 36.12C20.0596 35.96 19.7496 35.69 19.2796 35.3C18.957 35.0452 18.659 34.7606 18.3896 34.45C17.914 33.9433 17.634 33.2841 17.5996 32.59C17.5826 32.2418 17.6622 31.8958 17.8296 31.59C17.9099 31.438 18.0311 31.3116 18.1796 31.2249C18.328 31.1383 18.4978 31.0951 18.6696 31.1C18.8192 31.0916 18.9687 31.1169 19.1072 31.174C19.2456 31.2311 19.3695 31.3186 19.4696 31.43C19.7504 31.8003 19.9141 32.246 19.9396 32.71L21.8696 32.36C21.8316 31.8217 21.6818 31.2972 21.4296 30.82C21.1884 30.4058 20.8439 30.0612 20.4296 29.82C19.8742 29.4888 19.236 29.3223 18.5896 29.34C17.9213 29.313 17.2631 29.5101 16.7196 29.9C16.3071 30.2266 15.9797 30.6483 15.7655 31.1289C15.5513 31.6095 15.4567 32.1348 15.4896 32.66C15.5086 33.3055 15.6836 33.9368 15.9996 34.5C16.3848 35.1467 16.8633 35.733 17.4196 36.24L19.2096 37.94C19.6642 38.3729 19.9361 38.9632 19.9696 39.59C19.9882 39.8964 19.9188 40.2017 19.7696 40.47C19.6659 40.66 19.5145 40.8198 19.3305 40.9337C19.1464 41.0477 18.9359 41.1119 18.7196 41.12C18.5619 41.1283 18.4044 41.099 18.2602 41.0347C18.1159 40.9704 17.9889 40.8728 17.8896 40.75C17.5095 40.2664 17.2925 39.6747 17.2696 39.06L15.3496 39.2C15.3776 39.8519 15.5268 40.4928 15.7896 41.09C16.0067 41.6015 16.3509 42.049 16.7896 42.39C17.3703 42.8073 18.0754 43.0153 18.7896 42.98C19.1684 42.9866 19.5459 42.936 19.9096 42.83C20.4615 42.6736 20.9465 42.3397 21.2896 41.88C21.7897 41.1904 22.0402 40.351 21.9996 39.5C21.9775 39.0588 21.8758 38.6251 21.6996 38.22C21.5994 38.0032 21.4859 37.7928 21.3596 37.59Z" fill="#DADADA"/>
<path d="M26.7896 29.3C26.3699 29.3 25.9542 29.3828 25.5665 29.5438C25.1789 29.7047 24.8268 29.9406 24.5304 30.2379C24.2341 30.5351 23.9993 30.888 23.8396 31.2762C23.6799 31.6644 23.5983 32.0802 23.5996 32.5V39.79C23.5996 40.2018 23.6818 40.6094 23.8415 40.9889C24.0012 41.3684 24.2352 41.7122 24.5296 42C24.9723 42.4524 25.5395 42.7629 26.1592 42.8919C26.7788 43.021 27.4228 42.9628 28.0093 42.7248C28.5957 42.4868 29.0982 42.0797 29.4526 41.5553C29.807 41.0309 29.9974 40.4129 29.9996 39.78V32.5C30.0009 32.0794 29.9191 31.6627 29.7587 31.2739C29.5984 30.885 29.3627 30.5317 29.0653 30.2343C28.7679 29.9369 28.4146 29.7012 28.0258 29.5409C27.6369 29.3806 27.2202 29.2987 26.7996 29.3H26.7896ZM27.8896 39.76C27.8896 40.065 27.7685 40.3575 27.5528 40.5732C27.3371 40.7888 27.0446 40.91 26.7396 40.91C26.587 40.9122 26.4355 40.8832 26.2945 40.8247C26.1535 40.7662 26.0259 40.6796 25.9196 40.57C25.8103 40.4656 25.7238 40.3398 25.6653 40.2004C25.6068 40.0611 25.5776 39.9111 25.5796 39.76V32.45C25.5776 32.2989 25.6068 32.149 25.6653 32.0096C25.7238 31.8702 25.8103 31.7444 25.9196 31.64C26.0263 31.5309 26.1539 31.4445 26.2948 31.3861C26.4358 31.3277 26.5871 31.2984 26.7396 31.3C27.0446 31.3 27.3371 31.4212 27.5528 31.6368C27.7685 31.8525 27.8896 32.145 27.8896 32.45V39.76Z" fill="#DADADA"/>
<path d="M36.69 38.44L34.01 29.46H31.75V42.82H33.77V34.27L36.54 42.82H38.7V29.46H36.69V38.44Z" fill="#DADADA"/>
</svg>
