<svg width="41" height="40" viewBox="0 0 41 40" fill="none" xmlns="http://www.w3.org/2000/svg">
<path d="M20.0004 0C18.7372 0 17.6846 1.05263 17.6846 2.31579V9.01053C17.6846 10.2737 18.7372 11.3263 20.0004 11.3263C21.2635 11.3263 22.3161 10.2737 22.3161 9.01053V2.31579C22.3161 1.05263 21.2635 0 20.0004 0Z" fill="#6C75E1"/>
<path d="M9.13682 5.85261C8.25261 4.9684 6.77893 4.9684 5.85261 5.85261C4.9684 6.73682 4.9684 8.21051 5.85261 9.13682L10.6105 13.8947C11.0737 14.3579 11.6631 14.5684 12.2526 14.5684C12.8421 14.5684 13.4316 14.3579 13.8947 13.8947C14.7789 13.0105 14.7789 11.5368 13.8947 10.6105L9.13682 5.85261Z" fill="#6C75E1"/>
<path d="M11.3263 20.0001C11.3263 18.737 10.2737 17.6843 9.01053 17.6843H2.31579C1.05263 17.6843 0 18.737 0 20.0001C0 21.2633 1.05263 22.3159 2.31579 22.3159H9.01053C10.3158 22.3159 11.3263 21.2633 11.3263 20.0001Z" fill="#6C75E1"/>
<path d="M10.6105 26.1474L5.85261 30.8631C4.9684 31.7474 4.9684 33.221 5.85261 34.1474C6.31577 34.6105 6.90524 34.821 7.49472 34.821C8.08419 34.821 8.67366 34.6105 9.13682 34.1474L13.8947 29.3895C14.7789 28.5053 14.7789 27.0316 13.8947 26.1053C12.9684 25.221 11.4947 25.221 10.6105 26.1474Z" fill="#6C75E1"/>
<path d="M20.0004 28.6736C18.7372 28.6736 17.6846 29.7262 17.6846 30.9894V37.6841C17.6846 38.9473 18.7372 39.9999 20.0004 39.9999C21.2635 39.9999 22.3161 38.9473 22.3161 37.6841V30.9894C22.3161 29.6841 21.2635 28.6736 20.0004 28.6736Z" fill="#6C75E1"/>
<path d="M29.3898 26.1473C28.5055 25.2631 27.0319 25.2631 26.1055 26.1473C25.2213 27.0315 25.2213 28.5052 26.1055 29.4315L30.8634 34.1894C31.3266 34.6526 31.9161 34.8631 32.5055 34.8631C33.095 34.8631 33.6845 34.6526 34.1476 34.1894C35.0319 33.3052 35.0319 31.8315 34.1476 30.9052L29.3898 26.1473Z" fill="#6C75E1"/>
<path d="M37.6853 17.6843H30.9906C29.7274 17.6843 28.6748 18.737 28.6748 20.0001C28.6748 21.2633 29.7274 22.3159 30.9906 22.3159H37.6853C38.9485 22.3159 40.0011 21.2633 40.0011 20.0001C40.0011 18.737 38.9485 17.6843 37.6853 17.6843Z" fill="#6C75E1"/>
<path d="M27.7466 14.5264C28.336 14.5264 28.9255 14.3159 29.3887 13.8527L34.1466 9.09483C35.0308 8.21062 35.0308 6.73693 34.1466 5.81062C33.2623 4.92641 31.7887 4.92641 30.8623 5.81062L26.1466 10.6106C25.2623 11.4948 25.2623 12.9685 26.1466 13.8948C26.5676 14.3159 27.1571 14.5264 27.7466 14.5264Z" fill="#6C75E1"/>
</svg>
