<svg width="15" height="15" viewBox="0 0 15 15" fill="none" xmlns="http://www.w3.org/2000/svg">
<path d="M9.32714 2.50351L12.3787 5.56982L4.65494 13.3305L1.60518 10.2654L9.32714 2.50351ZM14.694 1.76374L13.3331 0.39641C13.2081 0.270773 13.0595 0.171076 12.8958 0.103048C12.7321 0.0350199 12.5566 0 12.3794 0C12.2021 0 12.0266 0.0350199 11.863 0.103048C11.6993 0.171076 11.5507 0.270773 11.4256 0.39641L10.1222 1.70632L13.1735 4.77263L14.694 3.24475C14.8899 3.04814 15 2.78185 15 2.50424C15 2.22663 14.8899 1.96035 14.694 1.76374ZM0.00852235 14.5754C-0.00447254 14.633 -0.00258047 14.693 0.0140203 14.7497C0.0306211 14.8064 0.061384 14.858 0.103411 14.8995C0.145438 14.9411 0.197345 14.9712 0.254243 14.9871C0.311141 15.003 0.371156 15.0042 0.428634 14.9905L3.82878 14.162L0.779019 11.0957L0.00852235 14.5754Z" fill="#444444"/>
</svg>
