<svg width="24" height="24" viewBox="0 0 24 24" fill="none" xmlns="http://www.w3.org/2000/svg">
<path d="M15.3421 0.502905C15.2665 0.351535 15.1502 0.224263 15.0062 0.135415C14.8622 0.0465664 14.6963 -0.000330735 14.5271 1.75575e-06H8.74375C8.57457 -0.000330735 8.40865 0.0465664 8.26467 0.135415C8.12069 0.224263 8.00437 0.351535 7.9288 0.502905L6.58369 3.21434H2V5.03206H3.29361V23.0911C3.29361 23.3322 3.38937 23.5634 3.55981 23.7338C3.73026 23.9042 3.96143 24 4.20247 24H19.0714C19.3125 24 19.5437 23.9042 19.7141 23.7338C19.8846 23.5634 19.9803 23.3322 19.9803 23.0911V5.03206H21.2739V3.21434H16.6902L15.3421 0.502905ZM9.30724 1.81772H13.9667L14.6665 3.21434H8.60742L9.30724 1.81772ZM8.6771 20.1798H6.85938V7.66776H8.6771V20.1798ZM12.5458 20.1798H10.7281V7.66776H12.5458V20.1798ZM16.4145 20.1798H14.5968V7.66776H16.4145V20.1798Z" fill="#444444"/>
</svg>
