<svg width="24" height="24" viewBox="0 0 24 24" fill="none" xmlns="http://www.w3.org/2000/svg">
<path d="M2.66667 6.66667H3.33333V23.3333C3.33333 23.7016 3.63173 24 4 24H20C20.3683 24 20.6667 23.7016 20.6667 23.3333V6.66667H21.3333C21.7016 6.66667 22 6.36827 22 6V3.33333C22 2.96507 21.7016 2.66667 21.3333 2.66667H15.3333V0.666667C15.3333 0.2984 15.0349 0 14.6667 0H9.33333C8.96507 0 8.66667 0.2984 8.66667 0.666667V2.66667H2.66667C2.2984 2.66667 2 2.96507 2 3.33333V6C2 6.36827 2.2984 6.66667 2.66667 6.66667ZM19.3333 22.6667H4.66667V6.66667H19.3333V22.6667ZM10 1.33333H14V2.66667H10V1.33333ZM3.33333 4H9.33333H14.6667H20.6667V5.33333H20H4H3.33333V4Z" fill="#444444"/>
<path d="M12.0007 21.3333C12.3689 21.3333 12.6673 21.0349 12.6673 20.6667V8.66667C12.6673 8.2984 12.3689 8 12.0007 8C11.6324 8 11.334 8.2984 11.334 8.66667V20.6667C11.334 21.0349 11.6324 21.3333 12.0007 21.3333Z" fill="#444444"/>
<path d="M8.00065 21.3333C8.36892 21.3333 8.66732 21.0349 8.66732 20.6667V8.66667C8.66732 8.2984 8.36892 8 8.00065 8C7.63238 8 7.33398 8.2984 7.33398 8.66667V20.6667C7.33398 21.0349 7.63238 21.3333 8.00065 21.3333Z" fill="#444444"/>
<path d="M16.0007 21.3333C16.3689 21.3333 16.6673 21.0349 16.6673 20.6667V8.66667C16.6673 8.2984 16.3689 8 16.0007 8C15.6324 8 15.334 8.2984 15.334 8.66667V20.6667C15.334 21.0349 15.6324 21.3333 16.0007 21.3333Z" fill="#444444"/>
</svg>
