<svg width="16" height="16" viewBox="0 0 16 16" fill="none" xmlns="http://www.w3.org/2000/svg">
<path d="M2.66732 16H13.334C13.5795 16 13.7784 15.8011 13.7784 15.5556V4.44444H14.2229C14.4684 4.44444 14.6673 4.24551 14.6673 4V2.22222C14.6673 1.97671 14.4684 1.77778 14.2229 1.77778H10.2229V0.444444C10.2229 0.198933 10.0239 0 9.77843 0H6.22287C5.97736 0 5.77843 0.198933 5.77843 0.444444V1.77778H1.77843C1.53292 1.77778 1.33398 1.97671 1.33398 2.22222V4C1.33398 4.24551 1.53292 4.44444 1.77843 4.44444H2.22287V15.5556C2.22287 15.8011 2.42181 16 2.66732 16ZM12.8895 15.1111H3.11176V4.44444H12.8895V15.1111ZM6.66732 0.888889H9.33398V1.77778H6.66732V0.888889ZM2.22287 2.66667H6.22287H9.77843H13.7784V3.55556H13.334H2.66732H2.22287V2.66667Z" fill="#444444"/>
<path d="M8.00087 13.7778C9.9614 13.7778 11.5564 12.1828 11.5564 10.2222C11.5564 8.41262 10.1964 6.91733 8.44531 6.6976V6.22222C8.44531 6.05831 8.35518 5.90773 8.21065 5.8304C8.06611 5.75306 7.89082 5.76142 7.75447 5.85244L6.42113 6.74133C6.2974 6.82364 6.22309 6.96249 6.22309 7.11111C6.22309 7.25973 6.2974 7.39857 6.42096 7.48089L7.75429 8.36977C7.8286 8.41937 7.91465 8.44444 8.00087 8.44444C8.07287 8.44444 8.14487 8.42702 8.21065 8.39182C8.35518 8.31448 8.44531 8.16391 8.44531 8V7.59573C9.70451 7.80835 10.6675 8.90346 10.6675 10.2222C10.6675 11.6926 9.47127 12.8889 8.00087 12.8889C6.53047 12.8889 5.3342 11.6926 5.3342 10.2222C5.3342 9.97671 5.13527 9.77777 4.88976 9.77777C4.64425 9.77777 4.44531 9.97671 4.44531 10.2222C4.44531 12.1828 6.04033 13.7778 8.00087 13.7778Z" fill="#444444"/>
</svg>
