<svg width="58" height="64" viewBox="0 0 58 64" fill="none" xmlns="http://www.w3.org/2000/svg">
<path d="M50.7573 36.242V19.952L33.1713 2H6.94531V36.242" stroke="#444444" stroke-width="3" stroke-miterlimit="10"/>
<path d="M6.94531 55.388V62H50.7573V55.388" stroke="#444444" stroke-width="3" stroke-miterlimit="10"/>
<path d="M33.168 2V19.586H50.754" stroke="#444444" stroke-width="3" stroke-miterlimit="10"/>
<path d="M55.7 36.242H2V55.388H55.7V36.242Z" stroke="#444444" stroke-width="3" stroke-miterlimit="10"/>
<path d="M19.276 50.076H18.3458L20.8769 46.503L21.0801 46.2161L20.8789 45.9278L18.5296 42.562H19.4641L21.2655 45.2503L21.6835 45.874L22.0979 45.248L23.8756 42.562H24.8298L22.4835 45.909L22.2816 46.1969L22.4843 46.4842L25.0183 50.076H24.0747L22.0936 47.1797L21.6821 46.5781L21.269 47.1786L19.276 50.076Z" stroke="#444444"/>
<path d="M28.5852 49.48H31.6852V50.076H27.2852V42.562H28.0852V48.98V49.48H28.5852Z" stroke="#444444"/>
<path d="M36.3964 42.436H36.4055L36.4146 42.4357C37.3509 42.4016 38.2672 42.6803 39.022 43.2207L38.6145 43.7567C37.9164 43.2803 37.0858 43.025 36.2322 43.032C35.7783 43.0323 35.3618 43.131 35.0453 43.3643C34.7109 43.6107 34.5344 43.9752 34.5344 44.384C34.5344 44.7319 34.702 44.998 34.9249 45.1833C35.13 45.3538 35.3909 45.4656 35.6384 45.5493C35.892 45.635 36.1801 45.7065 36.4654 45.7747C36.5155 45.7867 36.5657 45.7986 36.6159 45.8105C36.8586 45.8681 37.1022 45.926 37.3467 45.9933C37.9432 46.1576 38.4684 46.3598 38.8417 46.6686C39.1891 46.9559 39.4244 47.3503 39.4244 47.984C39.4244 48.6392 39.1956 49.1756 38.7555 49.5555C38.3075 49.9422 37.585 50.214 36.5164 50.214H36.503L36.4895 50.2147C35.8952 50.2468 35.3006 50.1568 34.7424 49.9504C34.3192 49.7939 33.9237 49.5729 33.5695 49.2961L33.9639 48.743C34.2562 48.9725 34.578 49.1631 34.9215 49.3094C35.4489 49.5339 36.0162 49.6491 36.5894 49.648L36.5884 49.148V49.648C37.1586 49.648 37.6403 49.5162 37.9941 49.2627C38.3548 49.0043 38.5704 48.6234 38.5704 48.2C38.5704 47.8529 38.4203 47.5753 38.1964 47.3715C37.99 47.1836 37.7255 47.0611 37.473 46.9707C37.2154 46.8785 36.9241 46.8042 36.6363 46.735C36.5594 46.7165 36.4828 46.6984 36.4063 46.6803C36.1877 46.6287 35.9698 46.5771 35.7492 46.5179C35.1491 46.3567 34.6242 46.1607 34.2514 45.855C33.9061 45.5719 33.6684 45.1772 33.6684 44.528C33.6684 43.4608 34.5659 42.436 36.3964 42.436Z" stroke="#444444"/>
</svg>
