<?xml version="1.0" standalone="no"?>
<!DOCTYPE svg PUBLIC "-//W3C//DTD SVG 20010904//EN"
 "http://www.w3.org/TR/2001/REC-SVG-20010904/DTD/svg10.dtd">
<svg version="1.0" xmlns="http://www.w3.org/2000/svg"
 width="200.000000pt" height="200.000000pt" viewBox="0 0 200.000000 200.000000"
 preserveAspectRatio="xMidYMid meet">
<metadata>
Created by potrace 1.11, written by Peter Selinger 2001-2013
</metadata>
<g transform="translate(0.000000,200.000000) scale(0.100000,-0.100000)"
fill="#000000" stroke="none">
<path d="M850 1775 c-335 -71 -576 -332 -621 -673 -35 -264 85 -550 298 -712
145 -110 295 -160 478 -160 183 0 333 50 478 160 131 99 244 273 283 435 23
94 23 276 0 370 -36 151 -135 308 -259 413 -69 60 -211 134 -302 158 -82 22
-272 27 -355 9z m287 -447 c65 -24 142 -96 179 -168 26 -49 29 -65 29 -150 0
-84 -3 -102 -28 -151 -34 -69 -100 -132 -175 -167 -81 -38 -193 -38 -274 0
-75 35 -141 98 -175 167 -25 49 -28 68 -28 151 0 89 2 99 34 158 88 163 261
226 438 160z"/>
</g>
</svg>
